<?xml version="1.0" encoding="utf-8"?>
<!-- Generator: Adobe Illustrator 22.1.0, SVG Export Plug-In . SVG Version: 6.00 Build 0)  -->
<svg version="1.1" id="Слой_1" xmlns="http://www.w3.org/2000/svg" xmlns:xlink="http://www.w3.org/1999/xlink" x="0px" y="0px"
	 viewBox="0 0 200 160" style="enable-background:new 0 0 200 160;" xml:space="preserve">
<style type="text/css">
	.st0{fill:#5A0374;}
</style>
<g>
	<g>
		<path class="st0" d="M172,0H38.7c-4.4,0-8,3.6-8,8v16H28c-4.4,0-8,3.6-8,8v120c0,4.4,3.6,8,8,8h133.3c4.4,0,8-3.6,8-8v-24h2.7
			c4.4,0,8-3.6,8-8V8C180,3.5,176.5,0,172,0L172,0z M161.3,154.7H28c-1.5,0-2.7-1.2-2.7-2.7V32c0-1.5,1.2-2.7,2.7-2.7h133.3
			c1.5,0,2.7,1.2,2.7,2.7v5.3H63.7c-0.6,0-1.1,0.5-1.1,1.1v3.2c0,0.6,0.5,1.1,1.1,1.1H164V152C164,153.6,162.9,154.7,161.3,154.7
			L161.3,154.7z M172,122.7h-2.7V32c0-4.4-3.6-8-8-8H36V8c0-1.5,1.2-2.7,2.7-2.7H172c1.5,0,2.7,1.2,2.7,2.7v5.3H74.5
			c-0.6,0-1.1,0.5-1.1,1.1v3c0,0.7,0.5,1.2,1.2,1.2h100.1V120C174.7,121.6,173.6,122.7,172,122.7L172,122.7z"/>
		<path class="st0" d="M153.3,66.7h-19.7c-2.1,0-4,1.1-4.8,2.9l-1.1,2.4h-6.4v-5.3c0-7.2-13.9-10.7-26.7-10.7S68,59.5,68,66.7v8
			h-6.4l-1.1-2.4c-0.8-1.9-2.7-2.9-4.8-2.9H36c-2.9,0-5.3,2.4-5.3,5.3V80c0,2.9,2.4,5.3,5.3,5.3h19.7c2.1,0,4-1.1,4.8-2.9l1.1-2.4
			H68v18.7h-6.4l-1.1-2.4c-0.8-1.9-2.7-2.9-4.8-2.9H36c-2.9,0-5.3,2.4-5.3,5.3v5.3c0,2.9,2.4,5.3,5.3,5.3h19.7c2.1,0,4-1.1,4.8-2.9
			l1.1-2.4H68v18.7h-6.4l-1.1-2.4c-0.8-1.9-2.7-2.9-4.8-2.9H36c-2.9,0-5.3,2.4-5.3,5.3v5.3c0,2.9,2.4,5.3,5.3,5.3h19.7
			c2.1,0,4-1.1,4.8-2.9l1.1-2.4H68v2.7c0,7.2,13.9,10.7,26.7,10.7s26.7-3.5,26.7-10.7v-5.3h6.4l1.1,2.4c0.8,1.9,2.7,2.9,4.8,2.9
			h19.7c2.9,0,5.3-2.4,5.3-5.3V120c0-2.9-2.4-5.3-5.3-5.3h-19.7c-2.1,0-4,1.1-4.8,2.9l-1.1,2.4h-6.4v-18.7h6.4l1.1,2.4
			c0.8,1.9,2.7,2.9,4.8,2.9h19.7c2.9,0,5.3-2.4,5.3-5.3V96c0-2.9-2.4-5.3-5.3-5.3h-19.7c-2.1,0-4,1.1-4.8,2.9l-1.1,2.4h-6.4V77.3
			h6.4l1.1,2.4c0.8,1.9,2.7,2.9,4.8,2.9h19.7c2.9,0,5.3-2.4,5.3-5.3V72C158.7,69.1,156.3,66.7,153.3,66.7L153.3,66.7z M55.7,80H36
			v-5.3h19.7l1.3,2.7L55.7,80z M55.7,104H36v-5.3h19.7l1.3,2.7L55.7,104z M55.7,128H36v-5.3h19.7l1.3,2.7L55.7,128z M133.6,120h19.7
			v5.3h-19.7l-1.3-2.7L133.6,120z M133.6,96h19.7v5.3h-19.7l-1.3-2.7L133.6,96z M94.7,61.3c13.9,0,21.3,4,21.3,5.3
			c0,1.3-7.5,5.3-21.3,5.3s-21.3-4-21.3-5.3C73.3,65.3,80.8,61.3,94.7,61.3L94.7,61.3z M94.7,136c-13.9,0-21.3-4-21.3-5.3V116
			c6.7,2.9,14.1,4.3,21.3,4c7.2,0.3,14.7-1.1,21.3-4v14.7C116,132,108.5,136,94.7,136L94.7,136z M94.7,114.7
			c-13.9,0-21.3-4-21.3-5.3V94.7c6.7,2.9,14.1,4.3,21.3,4c7.2,0.3,14.7-1.1,21.3-4v14.7C116,110.7,108.5,114.7,94.7,114.7
			L94.7,114.7z M94.7,93.3c-13.9,0-21.3-4-21.3-5.3V73.3c6.7,2.9,14.1,4.3,21.3,4c7.2,0.3,14.7-1.1,21.3-4V88
			C116,89.3,108.5,93.3,94.7,93.3L94.7,93.3z M133.6,77.3l-1.3-2.7l1.3-2.7h19.7v5.3L133.6,77.3L133.6,77.3z"/>
		<path class="st0" d="M31.6,37.3h2.8c0.8,0,1.4,0.6,1.4,1.4v2.8c0,0.8-0.6,1.4-1.4,1.4h-2.8c-0.8,0-1.4-0.6-1.4-1.4v-2.8
			C30.3,37.9,30.9,37.3,31.6,37.3z"/>
		<path class="st0" d="M42.6,37.3h2.8c0.8,0,1.4,0.6,1.4,1.4v2.8c0,0.8-0.6,1.4-1.4,1.4h-2.8c-0.8,0-1.4-0.6-1.4-1.4v-2.8
			C41.3,37.9,41.9,37.3,42.6,37.3z"/>
		<path class="st0" d="M53.6,37.3h2.8c0.8,0,1.4,0.6,1.4,1.4v2.8c0,0.8-0.6,1.4-1.4,1.4h-2.8c-0.8,0-1.4-0.6-1.4-1.4v-2.8
			C52.2,37.9,52.9,37.3,53.6,37.3z"/>
		<path class="st0" d="M42.3,13.3h2.8c0.8,0,1.4,0.6,1.4,1.4v2.8c0,0.8-0.6,1.4-1.4,1.4h-2.8c-0.8,0-1.4-0.6-1.4-1.4v-2.8
			C40.9,13.9,41.5,13.3,42.3,13.3z"/>
		<path class="st0" d="M53.3,13.3H56c0.8,0,1.4,0.6,1.4,1.4v2.8c0,0.8-0.6,1.4-1.4,1.4h-2.8c-0.8,0-1.4-0.6-1.4-1.4v-2.8
			C51.9,13.9,52.5,13.3,53.3,13.3z"/>
		<path class="st0" d="M64.3,13.3H67c0.8,0,1.4,0.6,1.4,1.4v2.8c0,0.8-0.6,1.4-1.4,1.4h-2.8c-0.8,0-1.4-0.6-1.4-1.4v-2.8
			C62.9,13.9,63.5,13.3,64.3,13.3z"/>
	</g>
</g>
</svg>
