<?xml version="1.0" encoding="utf-8"?>
<!-- Generator: Adobe Illustrator 22.1.0, SVG Export Plug-In . SVG Version: 6.00 Build 0)  -->
<svg version="1.1" id="Слой_1" xmlns="http://www.w3.org/2000/svg" xmlns:xlink="http://www.w3.org/1999/xlink" x="0px" y="0px"
	 viewBox="0 0 200 160" style="enable-background:new 0 0 200 160;" xml:space="preserve">
<style type="text/css">
	.st0{fill:#5A0374;}
</style>
<g>
	<g>
		<path class="st0" d="M108.3,110.3H91.7c-1.5,0-2.8,1.2-2.8,2.8c0,1.5,1.2,2.8,2.8,2.8h16.6c1.5,0,2.8-1.2,2.8-2.8
			C111,111.6,109.8,110.3,108.3,110.3L108.3,110.3z"/>
		<path class="st0" d="M165.7,52.1H135c-1.5,0-2.8,1.2-2.8,2.8c0,1.5,1.2,2.8,2.8,2.8h30.7c1.5,0,2.8-1.2,2.8-2.8
			C168.4,53.3,167.2,52.1,165.7,52.1L165.7,52.1z"/>
		<path class="st0" d="M151.5,65.6H135c-1.5,0-2.8,1.2-2.8,2.8c0,1.5,1.2,2.8,2.8,2.8h16.6c1.5,0,2.8-1.2,2.8-2.8
			C154.3,66.8,153,65.6,151.5,65.6L151.5,65.6z"/>
		<path class="st0" d="M165.7,38.6h-16.6c-1.5,0-2.8,1.2-2.8,2.8c0,1.5,1.2,2.8,2.8,2.8h16.6c1.5,0,2.8-1.2,2.8-2.8
			C168.4,39.9,167.2,38.6,165.7,38.6L165.7,38.6z"/>
		<path class="st0" d="M165.7,65.6h-6c-1.5,0-2.8,1.2-2.8,2.8c0,1.5,1.2,2.8,2.8,2.8h6c1.5,0,2.8-1.2,2.8-2.8
			C168.4,66.8,167.2,65.6,165.7,65.6L165.7,65.6z"/>
		<path class="st0" d="M140.9,38.6h-6c-1.5,0-2.8,1.2-2.8,2.8c0,1.5,1.2,2.8,2.8,2.8h6c1.5,0,2.8-1.2,2.8-2.8
			C143.7,39.9,142.5,38.6,140.9,38.6L140.9,38.6z"/>
		<path class="st0" d="M137.5,25.1H135c-1.5,0-2.8,1.2-2.8,2.8c0,1.5,1.2,2.8,2.8,2.8h2.6c1.5,0,2.8-1.2,2.8-2.8
			C140.3,26.4,139.1,25.1,137.5,25.1L137.5,25.1z"/>
		<path class="st0" d="M165.7,25.1h-2.6c-1.5,0-2.8,1.2-2.8,2.8c0,1.5,1.2,2.8,2.8,2.8h2.6c1.5,0,2.8-1.2,2.8-2.8
			C168.4,26.4,167.2,25.1,165.7,25.1L165.7,25.1z"/>
		<path class="st0" d="M153.6,25.1h-6c-1.5,0-2.8,1.2-2.8,2.8c0,1.5,1.2,2.8,2.8,2.8h6c1.5,0,2.8-1.2,2.8-2.8
			C156.4,26.4,155.2,25.1,153.6,25.1L153.6,25.1z"/>
		<path class="st0" d="M65,52.1H34.3c-1.5,0-2.8,1.2-2.8,2.8c0,1.5,1.2,2.8,2.8,2.8H65c1.5,0,2.8-1.2,2.8-2.8S66.6,52.1,65,52.1
			L65,52.1z"/>
		<path class="st0" d="M50.9,65.6H34.3c-1.5,0-2.8,1.2-2.8,2.8c0,1.5,1.2,2.8,2.8,2.8h16.6c1.5,0,2.8-1.2,2.8-2.8
			C53.6,66.8,52.4,65.6,50.9,65.6L50.9,65.6z"/>
		<path class="st0" d="M65,38.6H48.5c-1.5,0-2.8,1.2-2.8,2.8c0,1.5,1.2,2.8,2.8,2.8H65c1.5,0,2.8-1.2,2.8-2.8
			C67.8,39.9,66.6,38.6,65,38.6L65,38.6z"/>
		<path class="st0" d="M65,65.6h-6c-1.5,0-2.8,1.2-2.8,2.8c0,1.5,1.2,2.8,2.8,2.8h6c1.5,0,2.8-1.2,2.8-2.8
			C67.8,66.8,66.6,65.6,65,65.6L65,65.6z"/>
		<path class="st0" d="M40.3,38.6h-6c-1.5,0-2.8,1.2-2.8,2.8c0,1.5,1.2,2.8,2.8,2.8h6c1.5,0,2.8-1.2,2.8-2.8
			C43,39.9,41.8,38.6,40.3,38.6L40.3,38.6z"/>
		<path class="st0" d="M65,79.1H48.5c-1.5,0-2.8,1.2-2.8,2.8c0,1.5,1.2,2.8,2.8,2.8H65c1.5,0,2.8-1.2,2.8-2.8
			C67.8,80.3,66.6,79.1,65,79.1L65,79.1z"/>
		<path class="st0" d="M40.3,79.1h-6c-1.5,0-2.8,1.2-2.8,2.8c0,1.5,1.2,2.8,2.8,2.8h6c1.5,0,2.8-1.2,2.8-2.8
			C43,80.3,41.8,79.1,40.3,79.1L40.3,79.1z"/>
		<path class="st0" d="M165.7,79.1h-16.6c-1.5,0-2.8,1.2-2.8,2.8c0,1.5,1.2,2.8,2.8,2.8h16.6c1.5,0,2.8-1.2,2.8-2.8
			C168.4,80.3,167.2,79.1,165.7,79.1L165.7,79.1z"/>
		<path class="st0" d="M140.9,79.1h-6c-1.5,0-2.8,1.2-2.8,2.8c0,1.5,1.2,2.8,2.8,2.8h6c1.5,0,2.8-1.2,2.8-2.8
			C143.7,80.3,142.5,79.1,140.9,79.1L140.9,79.1z"/>
		<path class="st0" d="M36.9,25.1h-2.6c-1.5,0-2.8,1.2-2.8,2.8c0,1.5,1.2,2.8,2.8,2.8h2.6c1.5,0,2.8-1.2,2.8-2.8
			C39.6,26.4,38.4,25.1,36.9,25.1L36.9,25.1z"/>
		<path class="st0" d="M65,25.1h-2.6c-1.5,0-2.8,1.2-2.8,2.8c0,1.5,1.2,2.8,2.8,2.8H65c1.5,0,2.8-1.2,2.8-2.8
			C67.8,26.4,66.6,25.1,65,25.1L65,25.1z"/>
		<path class="st0" d="M53,25.1h-6c-1.5,0-2.8,1.2-2.8,2.8c0,1.5,1.2,2.8,2.8,2.8h6c1.5,0,2.8-1.2,2.8-2.8
			C55.7,26.4,54.5,25.1,53,25.1L53,25.1z"/>
		<path class="st0" d="M182.9,11c-0.1-6-5.1-11-11.2-11H28.3c-6.1,0-11,5-11,11l-0.1,104.9c0,6.1,5,11,11,11h55.1
			c-0.6,10.9-5.2,16.5-13.7,16.5h-5.5c-4.6,0-8.3,3.7-8.3,8.3c0,4.6,3.7,8.3,8.3,8.3h71.7c4.6,0,8.3-3.7,8.3-8.3
			c0-4.5-3.7-8.3-8.2-8.3h-5.6c-8.5,0-13.1-5.6-13.7-16.5h55c6.1,0,11-5,11-11L182.9,11z M22.8,11c0-3,2.5-5.5,5.5-5.5h143.4
			c3,0,5.5,2.5,5.5,5.5v88.3H22.8V11z M135.8,148.9c1.5,0,2.8,1.2,2.8,2.8c0,1.5-1.2,2.8-2.7,2.8H64.1c-1.5,0-2.8-1.2-2.8-2.8
			c0-1.5,1.2-2.8,2.8-2.8H135.8z M116.9,143.4H83.1c3.4-3.8,5.4-9.3,5.8-16.5h22.2C111.5,134.1,113.5,139.6,116.9,143.4z
			 M177.3,115.9L177.3,115.9c-0.1,3-2.6,5.5-5.6,5.5H28.3c-3,0-5.5-2.5-5.5-5.5v-11h154.5V115.9z"/>
		<path class="st0" d="M122.7,45.5c0-1.1-0.9-2.1-2.1-2.1h-2.1v-6.2c0-10.2-8.3-18.5-18.5-18.5S81.5,27,81.5,37.2v6.2h-2.1
			c-1.1,0-2.1,0.9-2.1,2.1v37.1c0,1.1,0.9,2.1,2.1,2.1h41.2c1.1,0,2.1-0.9,2.1-2.1C122.7,82.6,122.7,45.5,122.7,45.5z M85.6,37.2
			c0-8,6.5-14.4,14.4-14.4c8,0,14.4,6.5,14.4,14.4v6.2h-4.1v-6.2c0-5.7-4.6-10.3-10.3-10.3c-5.7,0-10.3,4.6-10.3,10.3v6.2h-4.1V37.2
			z M106.2,37.2v6.2H93.8v-6.2c0-3.4,2.8-6.2,6.2-6.2C103.4,31,106.2,33.8,106.2,37.2z M118.5,80.5h-37v-33h37.1L118.5,80.5
			L118.5,80.5z"/>
		<path class="st0" d="M106.6,57c-1.4-3.9-6-5.8-9.8-3.8c-2.1,1.1-3.5,3.3-3.7,5.7c-0.2,3.2,1.8,6,4.6,7v8.8c0,0.5,0.4,0.9,0.9,0.9
			h2.8c0.5,0,0.9-0.4,0.9-0.9v-8.8C105.9,64.6,107.8,60.6,106.6,57z M100.6,62.5c-2.2,0.4-4.2-1.5-3.7-3.7c0.2-1.2,1.3-2.3,2.5-2.5
			c2.2-0.4,4.2,1.5,3.7,3.7C102.9,61.2,101.9,62.2,100.6,62.5z"/>
	</g>
</g>
</svg>
