<?xml version="1.0" encoding="utf-8"?>
<!-- Generator: Adobe Illustrator 22.1.0, SVG Export Plug-In . SVG Version: 6.00 Build 0)  -->
<svg version="1.1" id="Слой_1" xmlns="http://www.w3.org/2000/svg" xmlns:xlink="http://www.w3.org/1999/xlink" x="0px" y="0px"
	 viewBox="0 0 200 160" style="enable-background:new 0 0 200 160;" xml:space="preserve">
<style type="text/css">
	.st0{fill:#5A0374;}
</style>
<g>
	<g>
		<path class="st0" d="M100,16c-1.5,0-2.7,1.2-2.7,2.7v114.6c0,1.5,1.2,2.7,2.7,2.7s2.7-1.2,2.7-2.7V18.7
			C102.7,17.2,101.5,16,100,16L100,16z"/>
		<path class="st0" d="M86.7,72c-1.5,0-2.7,1.2-2.7,2.7v2.7c0,1.5,1.2,2.7,2.7,2.7s2.7-1.2,2.7-2.7v-2.7C89.4,73.2,88.2,72,86.7,72
			L86.7,72z"/>
		<path class="st0" d="M108,45.4V48c0,1.5,1.2,2.7,2.7,2.7s2.7-1.2,2.7-2.7v-2.7c0-1.5-1.2-2.7-2.7-2.7
			C109.2,42.7,108,43.9,108,45.4L108,45.4z"/>
		<path class="st0" d="M54.7,64C48.8,64,44,68.8,44,74.7c0,1.5,1.2,2.7,2.7,2.7s2.7-1.2,2.7-2.7c0-2.2,1.3-4.1,3.3-4.9
			s4.3-0.4,5.8,1.2c1.5,1.5,2,3.8,1.2,5.8s-2.8,3.3-4.9,3.3c-1.5,0-2.7,1.2-2.7,2.7s1.2,2.7,2.7,2.7c5.9,0,10.7-4.8,10.7-10.7
			C65.4,68.8,60.6,64,54.7,64L54.7,64z"/>
		<path class="st0" d="M137.3,93.3c1.5,0,2.7-1.2,2.7-2.7s-1.2-2.7-2.7-2.7c-2.9,0-5.3-2.4-5.3-5.3s2.4-5.3,5.3-5.3
			c1.5,0,2.7-1.2,2.7-2.7s-1.2-2.7-2.7-2.7c-5.9,0-10.7,4.8-10.7,10.7C126.7,88.6,131.4,93.3,137.3,93.3L137.3,93.3z"/>
		<path class="st0" d="M113.3,98.7h-2.7c-1.5,0-2.7,1.2-2.7,2.7s1.2,2.7,2.7,2.7h2.7c1.5,0,2.7-1.2,2.7-2.7
			C116,99.9,114.8,98.7,113.3,98.7L113.3,98.7z"/>
		<path class="st0" d="M122.8,71.6c1.2-0.8,1.6-2.5,0.7-3.7c-0.8-1.2-2.5-1.6-3.7-0.7l-0.9,0.6c-5.2,3.5-8.3,9.3-8.3,15.5v2.1
			c0,1.5,1.2,2.7,2.7,2.7s2.7-1.2,2.7-2.7v-2.1c0-4.5,2.2-8.6,5.9-11.1L122.8,71.6z"/>
		<path class="st0" d="M113.3,21.4c0,1.5,1.2,2.7,2.7,2.7s2.7-1.2,2.7-2.7c0-5.9-4.8-10.7-10.7-10.7c-1.5,0-2.7,1.2-2.7,2.7
			s1.2,2.7,2.7,2.7C111,16,113.3,18.4,113.3,21.4L113.3,21.4z"/>
		<path class="st0" d="M70.7,114.6c1.5,0,2.7-1.2,2.7-2.7s-1.2-2.7-2.7-2.7c-4.4,0-8,3.6-8,8s3.6,8,8,8c1.5,0,2.7-1.2,2.7-2.7
			s-1.2-2.7-2.7-2.7s-2.7-1.2-2.7-2.7C68,115.8,69.2,114.6,70.7,114.6L70.7,114.6z"/>
		<path class="st0" d="M169.3,138.6c-4.8,0-9.1,3.3-10.3,8h-24.4v-11.4c7-2.1,12.1-8,13.1-15.2c0.1,0,0.1,0,0.2,0
			c5,0,9.8-2.3,12.8-6.4c3-4,4-9.2,2.6-14.1c5.5-5,8.7-12.1,8.6-19.6c0-10.1-5.8-19.4-14.8-23.8c2.2-3.2,3.6-6.9,4-10.8h8.2
			c1.5,0,2.7-1.2,2.7-2.7V21c5.2-1.3,8.6-6.3,7.9-11.7C179.2,4,174.7,0,169.3,0s-9.9,4-10.6,9.3c-0.7,5.3,2.7,10.3,7.9,11.7v19h-5.5
			c-0.7-6.8-4.4-13-10-17s-12.7-5.3-19.3-3.7c0-0.4,0-0.7-0.1-1.1c-1.4-9.6-9.2-17-18.8-18.1c-4.5-0.5-9,0.5-13,2.7
			c-3.9-2.3-8.5-3.2-13-2.7C77.1,1.2,69.3,8.9,68,18.7c0,0.2,0,0.4,0,0.6c-1.8-0.4-3.6-0.6-5.4-0.6v-8C62.7,9.2,61.5,8,60,8H41
			c-1.3-5.2-6.3-8.6-11.7-7.9C24,0.8,20,5.3,20,10.7s4,9.9,9.3,10.6s10.3-2.7,11.7-7.9h16.4v5.9c-7.7,1.7-14.1,7.2-17,14.6
			s-2,15.7,2.5,22.3C33.8,60.6,28.1,69.9,28.1,80c0,7.4,3.1,14.6,8.6,19.6c-0.4,1.4-0.6,2.9-0.6,4.4h-5.3c-1.5,0-2.7,1.2-2.7,2.7
			V139c-5.2,1.3-8.6,6.3-7.9,11.7c0.7,5.3,5.2,9.3,10.6,9.3s9.9-4,10.6-9.3c0.7-5.3-2.7-10.3-7.9-11.7v-29.7H37
			c2.3,6.4,8.3,10.7,15.1,10.7c0.1,0,0.1,0,0.2,0c0.8,5.4,3.8,10.2,8.4,13.1c4.6,2.9,10.2,3.7,15.4,2.1c0,0.3,0,0.5,0,0.8
			c0,13.2,10.7,24,24,24s24-10.7,24-24c0-0.3,0-0.5,0-0.8c1.7,0.5,3.6,0.8,5.4,0.8v13.3c0,1.5,1.2,2.7,2.7,2.7h27
			c1,3.9,4.2,6.9,8.2,7.7s8.1-0.7,10.6-3.9s2.9-7.6,1.1-11.2C177.1,140.9,173.4,138.6,169.3,138.6L169.3,138.6z M164,10.7
			c0-2.2,1.3-4.1,3.3-4.9s4.3-0.4,5.8,1.2c1.5,1.5,2,3.8,1.2,5.8s-2.8,3.3-4.9,3.3C166.4,16,164,13.6,164,10.7L164,10.7z M30.7,16
			c-2.2,0-4.1-1.3-4.9-3.3S25.4,8.4,27,6.9c1.5-1.5,3.8-2,5.8-1.2s3.3,2.8,3.3,4.9C36.1,13.6,33.7,16,30.7,16L30.7,16z M36.1,149.3
			c0,2.2-1.3,4.1-3.3,4.9c-2,0.8-4.3,0.4-5.8-1.2c-1.5-1.5-2-3.8-1.2-5.8s2.8-3.3,4.9-3.3C33.7,144,36.1,146.4,36.1,149.3
			L36.1,149.3z M122.4,128.7c-0.1-0.1-0.2-0.1-0.3-0.2c-3.3-2.1-5.5-5.6-6-9.4c-0.1-0.6-0.1-1.2-0.1-1.8c0-1.5-1.2-2.7-2.7-2.7
			s-2.7,1.2-2.7,2.7c0,0.8,0.1,1.7,0.2,2.5c0.7,5,3.3,9.5,7.4,12.5c0.3,1.2,0.4,2.4,0.4,3.7c0,10.3-8.4,18.7-18.7,18.7
			s-18.7-8.4-18.7-18.7c0-1.2,0.1-2.5,0.4-3.7c4.8-3.5,7.6-9.1,7.6-15c0-1.5-1.2-2.7-2.7-2.7s-2.7,1.2-2.7,2.7
			c-0.1,7.4-6.2,13.2-13.5,13.1s-13.2-6.2-13.1-13.5c0.5-7.4,6.6-13,14-12.9H76c7.4,0,13.3-6,13.3-13.3V88c0-1.5-1.2-2.7-2.7-2.7
			s-2.7,1.2-2.7,2.7v2.7c0,4.4-3.6,8-8,8h-4.7c-9.4-0.1-17.5,6.7-19.1,16c-0.1,0-0.1,0-0.2,0c-3.8,0-7.3-2-9.2-5.3h3.8
			c1.5,0,2.7-1.2,2.7-2.7S48,104,46.5,104h-5.3c0-5.9,4.8-10.7,10.7-10.7c1.5,0,2.7-1.2,2.7-2.7s-1.2-2.7-2.7-2.7
			c-5.1,0-9.9,2.4-12.9,6.5c-3.7-3.9-5.8-9.1-5.8-14.5c0-9.2,5.9-17.3,14.6-20.2h0.1c7.4-2.4,15.4-0.6,21.1,4.7
			c0.5,0.5,1.2,0.8,1.9,0.8c0.7,0,1.4-0.3,1.9-0.8s0.7-1.2,0.7-1.9s-0.4-1.4-0.9-1.9c-6.6-6.2-16-8.6-24.8-6.3
			c-3.8-4.9-5-11.3-3.1-17.2s6.5-10.5,12.4-12.2v17.9c0,1.5,1.2,2.7,2.7,2.7s2.7-1.2,2.7-2.7V24c1.9,0,3.8,0.3,5.7,0.9
			c1.2,7.3,6.2,13.4,13,16.2c3.1,1.1,5.2,4,5.3,7.3v4.9c0,1.5,1.2,2.7,2.7,2.7s2.7-1.2,2.7-2.7v-4.9c-0.1-5.5-3.5-10.3-8.6-12.3
			c-6.8-2.7-10.9-9.7-9.9-17S80.2,6.2,87.5,5.4c4-0.4,7.8,0.6,11,2.8c0.9,0.6,2.1,0.6,3.1,0c3.7-2.6,8.2-3.5,12.6-2.5
			s8.1,3.7,10.4,7.6c2.2,3.9,2.8,8.5,1.4,12.8c-1.3,4.3-4.4,7.8-8.4,9.7c-1.3,0.6-1.9,2.2-1.3,3.6c0.6,1.3,2.2,1.9,3.6,1.3
			c6.3-3,10.7-8.9,11.9-15.7c1.8-0.6,3.7-0.9,5.6-0.9c9.3,0,17.1,6.8,18.4,16h-18.4c-1.5,0-2.7,1.2-2.7,2.7s1.2,2.7,2.7,2.7h18.4
			c-0.5,3.2-1.8,6.3-3.8,8.9c-8.8-2.3-18.2,0-24.8,6.3c-0.5,0.5-0.9,1.2-0.9,1.9s0.2,1.4,0.7,1.9s1.2,0.8,1.9,0.8s1.4-0.3,1.9-0.8
			c5.7-5.3,13.7-7.1,21.1-4.7h0.1c8.7,2.9,14.6,11,14.6,20.2c0,5.4-2.1,10.6-5.8,14.5c-3-4.1-7.8-6.5-12.9-6.5
			c-1.5,0-2.7,1.2-2.7,2.7s1.2,2.7,2.7,2.7c5.9,0,10.7,4.8,10.7,10.7c0,5.9-4.8,10.7-10.7,10.7c-0.1,0-0.1,0-0.2,0
			c-1.6-9.3-9.7-16-19.1-16H124c-1.5,0-2.7,1.2-2.7,2.7s1.2,2.7,2.7,2.7h4.7c7.4-0.1,13.5,5.6,14,12.9c0,0,0,0,0,0.1c0,0,0,0,0,0.1
			l0,0c0.1,5.4-3,10.3-8,12.5V120c0-1.5-1.2-2.7-2.7-2.7s-2.7,1.2-2.7,2.7v10.7C126.9,130.6,124.5,130,122.4,128.7L122.4,128.7z
			 M169.3,154.6c-2.2,0-4.1-1.3-4.9-3.3c-0.8-2-0.4-4.3,1.2-5.8c1.5-1.5,3.8-2,5.8-1.2s3.3,2.8,3.3,4.9
			C174.6,152.2,172.3,154.6,169.3,154.6L169.3,154.6z"/>
		<path class="st0" d="M89.4,26.7c-2.9,0-5.3-2.4-5.3-5.3c0-1.5-1.2-2.7-2.7-2.7s-2.7,1.2-2.7,2.7c0,5.9,4.8,10.7,10.7,10.7
			c1.5,0,2.7-1.2,2.7-2.7C92,27.9,90.8,26.7,89.4,26.7L89.4,26.7z"/>
		<path class="st0" d="M148,72c2.9,0,5.3,2.4,5.3,5.3c0,1.5,1.2,2.7,2.7,2.7s2.7-1.2,2.7-2.7c0-5.9-4.8-10.7-10.7-10.7
			c-1.5,0-2.7,1.2-2.7,2.7S146.5,72,148,72L148,72z"/>
		<path class="st0" d="M100,141.3c-1.5,0-2.7,1.2-2.7,2.7v2.7c0,1.5,1.2,2.7,2.7,2.7s2.7-1.2,2.7-2.7V144
			C102.7,142.5,101.5,141.3,100,141.3L100,141.3z"/>
	</g>
</g>
</svg>
