<?xml version="1.0" encoding="utf-8"?>
<!-- Generator: Adobe Illustrator 22.1.0, SVG Export Plug-In . SVG Version: 6.00 Build 0)  -->
<svg version="1.1" id="Слой_1" xmlns="http://www.w3.org/2000/svg" xmlns:xlink="http://www.w3.org/1999/xlink" x="0px" y="0px"
	 viewBox="0 0 200 160" style="enable-background:new 0 0 200 160;" xml:space="preserve">
<style type="text/css">
	.st0{fill:#5A0374;}
</style>
<g>
	<g>
		<g>
			<path class="st0" d="M144,85.4l-17.3-22c6.1-6.3,9.9-14.6,10.5-23.4H164v2.9c-6.2,1.3-10.7,6.7-10.7,13.1c0,7.4,6,13.3,13.3,13.3
				c7.4,0,13.3-6,13.3-13.3c0-6.3-4.5-11.8-10.7-13.1v-5.6c0-1.5-1.2-2.7-2.7-2.7H137c-0.5-7.4-3.2-14.4-7.8-20.3l3.7-3.7h31.4
				c1.5,4.2,6,6.3,10.2,4.9c4.2-1.5,6.3-6,4.9-10.2c-1.5-4.2-6-6.3-10.2-4.9c-2.3,0.8-4.1,2.6-4.9,4.9H132c-0.7,0-1.4,0.3-1.9,0.8
				l-4.3,4.3C111-3.8,87.4-3.4,73.1,11.4c-6.1,6.3-9.7,14.5-10.3,23.2H40.4L31.7,15c3.9-2,5.4-6.9,3.3-10.8c-2-3.9-6.9-5.4-10.8-3.3
				c-3.9,2-5.4,6.9-3.3,10.8c1.1,2,3,3.5,5.2,4.1l10.1,22.6c0.4,1,1.4,1.6,2.4,1.6h24.1C63.3,48.7,67,56.9,73,63.1L50.6,85.6
				C36,83.4,22.5,93.5,20.3,108c-2.2,14.6,7.8,28.1,22.4,30.3c0.4,0.1,0.9,0.1,1.3,0.2V152c0,1.5,1.2,2.7,2.7,2.7h24.5
				c1.5,4.2,6,6.3,10.2,4.9c4.2-1.5,6.3-6,4.9-10.2c-1.5-4.2-6-6.3-10.2-4.9c-2.3,0.8-4.1,2.6-4.9,4.9H49.4v-10.8
				C64,137,74.7,124,73.2,109.3c-1-9.9-7.4-18.4-16.7-22.1L77,66.7c13.4,10.5,32.2,10.6,45.6,0.2l14.8,18.8
				c-20.4,2.8-34.7,21.7-31.8,42.1c2.8,20.4,21.7,34.7,42.1,31.8c20.4-2.8,34.7-21.7,31.8-42.1C177.1,99.6,162.1,86,144,85.4
				L144,85.4z M174.6,56c0,4.4-3.6,8-8,8s-8-3.6-8-8s3.6-8,8-8C171.1,48,174.6,51.6,174.6,56L174.6,56z M172,5.3
				c1.5,0,2.7,1.2,2.7,2.7s-1.2,2.7-2.7,2.7s-2.7-1.2-2.7-2.7S170.5,5.3,172,5.3L172,5.3z M28,10.7c-1.5,0-2.7-1.2-2.7-2.7
				s1.2-2.7,2.7-2.7s2.7,1.2,2.7,2.7S29.5,10.7,28,10.7L28,10.7z M78.7,149.3c1.5,0,2.7,1.2,2.7,2.7s-1.2,2.7-2.7,2.7
				S76,153.5,76,152S77.2,149.3,78.7,149.3L78.7,149.3z M57.3,130.4c-6.6,3.8-14.7,3.8-21.3,0v-5.1c0-5.9,4.8-10.7,10.7-10.7
				s10.7,4.8,10.7,10.7v5.1H57.3z M41.4,104c0-2.9,2.4-5.3,5.3-5.3c2.9,0,5.3,2.4,5.3,5.3s-2.4,5.3-5.3,5.3
				C43.7,109.3,41.4,106.9,41.4,104L41.4,104z M62.7,97.8c3.4,3.9,5.3,8.9,5.3,14.2c0,5.2-1.9,10.2-5.3,14.1v-0.7
				c0-5.8-3.2-11.2-8.3-14c4.1-4.3,3.9-11-0.4-15.1s-11-3.9-15.1,0.4c-3.9,4.1-3.9,10.6,0,14.7c-5.1,2.8-8.3,8.2-8.3,14v0.7
				c-7.8-8.8-6.9-22.3,1.9-30.1C41.4,88.1,54.9,89,62.7,97.8L62.7,97.8z M118.7,63.2c-11.1,8.1-26.2,8.1-37.3,0v-6.5
				c0-4.9,3.9-8.8,8.8-8.8h5.9l-3.9,9.7c-0.4,1-0.2,2.1,0.6,2.9l5.3,5.3c1,1,2.7,1,3.8,0l5.3-5.3c0.8-0.8,1-1.9,0.6-2.9l-3.9-9.7
				h5.9c4.9,0,8.8,3.9,8.8,8.8L118.7,63.2L118.7,63.2z M100.4,20c-0.1,0.2-0.2,0.3-0.2,0.5c-1.3,4-8.6,5.6-13.3,6
				c0.7-8.9,4.9-13.2,13.2-13.2c7.6,0,11.7,3.6,12.9,11l-9-5.3C102.8,18.3,101.1,18.7,100.4,20L100.4,20z M103.7,25l9.5,5.7
				c-1.1,6.5-9.1,11.9-13.2,11.9c-5.9-1-10.9-5.1-13-10.8C91.6,31.5,99.8,30.1,103.7,25L103.7,25z M102.2,58l-2.2,2.2L97.8,58
				l2.2-5.5L102.2,58z M111.6,42.8c4.2-3.3,6.7-8.2,7-13.5C118.7,11.7,108.5,8,100,8s-18.7,3.7-18.7,21.3c0.3,5.3,2.9,10.2,7,13.5
				c-7.1,0.9-12.4,6.9-12.4,14v1.6c-11.7-13.2-10.4-33.5,2.8-45.1C92.1,1.6,112.3,2.8,124,16.1c10.7,12.1,10.7,30.2,0,42.3v-1.6
				C124,49.7,118.7,43.6,111.6,42.8L111.6,42.8z M161.3,148.5c-11.1,8.1-26.2,8.1-37.3,0V142c0-4.9,3.9-8.8,8.8-8.8h5.9l-3.9,9.7
				c-0.4,1-0.2,2.1,0.6,2.9l5.3,5.3c1,1,2.7,1,3.8,0l5.3-5.3c0.8-0.8,1-1.9,0.6-2.9l-3.9-9.7h5.9c4.9,0,8.8,3.9,8.8,8.8L161.3,148.5
				L161.3,148.5z M146.3,110.3L146.3,110.3l9.5,5.7c-1.1,6.5-9.1,11.9-13.2,11.9c-5.9-1-10.9-5.1-13-10.8
				C134.3,116.8,142.5,115.4,146.3,110.3L146.3,110.3z M129.5,111.8c0.7-8.9,4.9-13.2,13.2-13.2c7.6,0,11.7,3.6,12.9,11l-8.9-5.3
				c-1.3-0.8-2.9-0.3-3.7,0.9c-0.1,0.2-0.2,0.3-0.2,0.5C141.4,109.8,134.2,111.4,129.5,111.8L129.5,111.8z M144.8,143.3l-2.2,2.2
				l-2.2-2.2l2.2-5.5L144.8,143.3z M166.6,143.7v-1.6c0-7.1-5.3-13.1-12.4-14c4.2-3.3,6.7-8.2,7-13.5c0-17.6-10.1-21.3-18.7-21.3
				c-8.5,0-18.7,3.7-18.7,21.3c0.3,5.3,2.9,10.2,7,13.5c-7.1,0.9-12.4,6.9-12.4,14v1.6c-11.7-13.3-10.4-33.5,2.9-45.1
				c13.3-11.7,33.5-10.4,45.1,2.9c5.1,5.8,8,13.4,8,21.1C174.6,130.4,171.8,137.9,166.6,143.7L166.6,143.7z"/>
		</g>
	</g>
</g>
</svg>
