<?xml version="1.0" encoding="utf-8"?>
<!-- Generator: Adobe Illustrator 22.1.0, SVG Export Plug-In . SVG Version: 6.00 Build 0)  -->
<svg version="1.1" id="Слой_1" xmlns="http://www.w3.org/2000/svg" xmlns:xlink="http://www.w3.org/1999/xlink" x="0px" y="0px"
	 viewBox="0 0 200 160" style="enable-background:new 0 0 200 160;" xml:space="preserve">
<style type="text/css">
	.st0{fill:#5A0374;}
</style>
<g>
	<g>
		<g>
			<path class="st0" d="M143.5,54.2c9,0,16.3-7.3,16.3-16.3s-7.3-16.3-16.3-16.3s-16.3,7.3-16.3,16.3S134.5,54.2,143.5,54.2
				L143.5,54.2z M143.5,48.8c-4.9,0-9.2-3.4-10.5-8.1h20.9C152.7,45.5,148.4,48.8,143.5,48.8L143.5,48.8z M143.5,27.1
				c4.9,0,9.2,3.4,10.5,8.1h-21C134.2,30.5,138.5,27.1,143.5,27.1L143.5,27.1z"/>
			<path class="st0" d="M178.7,45.6V35.5c0-0.2-0.1-0.3-0.3-0.3h-6.7c0-0.4,0-0.7-0.1-1.1l8.1-4.7c1.1-0.6,1.4-2,0.8-3.1l-8.6-14.9
				c-0.6-1.1-2-1.4-3.1-0.8l-8,4.6c-0.1,0.1-0.2,0-0.3,0c-1.9-1.5-4-2.7-6.2-3.6c-0.1,0-0.2-0.1-0.2-0.3V2.1c0-1.2-1-2.2-2.2-2.2
				h-17.2c-1.2,0-2.2,1-2.2,2.2v9.2c0,0.1-0.1,0.2-0.2,0.3c-2.2,0.9-4.3,2.1-6.2,3.6c-0.1,0.1-0.2,0.1-0.3,0l-8-4.6
				c-1.1-0.6-2.5-0.3-3.1,0.8l-8.6,14.9c-0.6,1.1-0.3,2.5,0.8,3.1l7.2,4.1c-0.2,0.8-0.2,0.8-0.4,1.6H35c-1.5,0-2.7,1.2-2.7,2.7v63.8
				c0,0.1-0.1,0.2-0.2,0.3c-8.1,3.4-13.4,11.3-13.4,20v21.7c0,9.7,7.6,16.3,19,16.3h32.5c11.4,0,19-6.5,19-16.3v-2.3H106
				c0.1,0,0.2,0,0.2,0.1l10.8,11.2c0,0,0,0,0.1,0c0.2,0.1,0.3,0.2,0.5,0.3c0.1,0.1,0.3,0.2,0.4,0.3c0,0,0,0,0.1,0l17.2,6.1
				c0.3,0.1,0.6,0.2,0.9,0.2c1.5,0,2.7-1.2,2.7-2.7c0-0.3,0-0.6-0.1-0.8l-4.5-14.3c-0.1-0.2,0.1-0.4,0.3-0.4h22.1
				c0.6,0,1.1-0.2,1.5-0.6l20.6-22.6c0-0.1,0.1-0.1,0.1-0.2v-65c0-0.1,0-0.1,0-0.1l2.1-3.4c0.5-0.9,0.9-2.1-0.7-2.9
				c-0.9-0.4-1.4-0.7-1.4-0.7C178.7,45.7,178.7,45.7,178.7,45.6z M173.3,42.7l-1.6-0.9c0-0.4,0-0.7,0.1-1.1h1.5V42.7z M112.7,26.1
				l5.1-8.9c0.1-0.1,0.3-0.2,0.4-0.1l8.3,4.8c0.1,0.1,0.2,0,0.3,0l1.3-1.1c2.4-2.1,5.1-3.7,8.1-4.7l1.6-0.5c0.1,0,0.2-0.2,0.2-0.3
				V5.7c0-0.2,0.1-0.3,0.3-0.3h10.3c0.2,0,0.3,0.1,0.3,0.3v9.6c0,0.1,0.1,0.2,0.2,0.3l1.5,0.5c3,1,5.8,2.6,8.2,4.7l1.3,1.1
				c0.1,0.1,0.2,0.1,0.3,0l8.3-4.8c0.1-0.1,0.3,0,0.4,0.1l5.1,8.9c0.1,0.1,0,0.3-0.1,0.4l-8.3,4.8c-0.1,0.1-0.2,0.2-0.1,0.3l0.3,1.7
				c0.6,3.1,0.6,6.3,0,9.5l-0.3,1.6c0,0.1,0,0.2,0.1,0.3l7.5,4.3v2.4l-4.2,7.3c-0.1,0.1-0.3,0.2-0.4,0.1l-8.3-4.8
				c-0.1-0.1-0.2,0-0.3,0l-1.3,1.1c-2.3,2.1-5,3.6-8,4.7l-1.7,0.6c-0.1,0-0.2,0.2-0.2,0.3v9.6c0,0.2-0.1,0.3-0.3,0.3h-10.3
				c-0.2,0-0.3-0.1-0.3-0.3v-9.6c0-0.1-0.1-0.2-0.2-0.3l-1.6-0.5c-3-1-5.7-2.6-8.1-4.7l-1.3-1.2c-0.1-0.1-0.2-0.1-0.3,0l-8.3,4.8
				c-0.1,0.1-0.3,0-0.4-0.1l-5.1-8.9c-0.1-0.1,0-0.3,0.1-0.4l8.3-4.8c0.1-0.1,0.2-0.2,0.1-0.3l-0.3-1.7c-0.6-3.1-0.6-6.3,0-9.4
				l0.3-1.7c0-0.1,0-0.2-0.1-0.3l-8.3-4.8C112.7,26.5,112.6,26.3,112.7,26.1z M24.2,122c0-8.9,7.1-16.1,16-16.3
				c0.2,0,0.3,0.1,0.3,0.3v10.9c0,7.3,4.9,13.2,10.8,13.2h5.4c6,0,10.8-5.9,10.8-13.2V106c0-0.2,0.1-0.3,0.3-0.3
				c8.8,0.2,16,7.4,16,16.3v16c0,0.2-0.1,0.3-0.3,0.3H24.4c-0.2,0-0.3-0.1-0.3-0.3v-16H24.2z M56.7,119v-13c0-0.2,0.1-0.3,0.3-0.3
				h4.8c0.2,0,0.3,0.1,0.3,0.3v11c0,4.2-2.5,7.7-5.4,7.7h-5.4c-2.9,0-5.4-3.5-5.4-7.7v-10.9c0-0.2,0.1-0.3,0.3-0.3H51
				c0.2,0,0.3,0.1,0.3,0.3v13c0,0.2,0.1,0.3,0.3,0.3h4.8C56.6,119.3,56.7,119.2,56.7,119z M70.3,154.6H37.7
				c-6.5,0-13.4-2.8-13.6-10.5c0-0.2,0.1-0.3,0.3-0.3h59c0.2,0,0.3,0.2,0.3,0.3C83.6,151.8,76.7,154.6,70.3,154.6L70.3,154.6z
				 M89.2,135.7v-11c0-0.3,0.3-0.4,0.5-0.2l10.6,11c0.2,0.2,0,0.5-0.2,0.5H89.5C89.4,136,89.2,135.8,89.2,135.7z M118.8,146.7
				l-14.7-15.2c-0.1-0.1-0.1-0.3,0-0.4l7.4-7.1c0.1-0.1,0.3-0.1,0.4,0l14.7,15.2c0.1,0.1,0.1,0.3,0,0.4l-7.4,7.1
				C119.1,146.9,118.9,146.9,118.8,146.7z M100,127.2l-3.4-3.5c-0.1-0.1-0.1-0.3,0-0.4l7.4-7.1c0.1-0.1,0.3-0.1,0.4,0l3.4,3.5
				c0.1,0.1,0.1,0.3,0,0.4l-7.4,7.1C100.3,127.3,100.1,127.3,100,127.2z M92.4,119.4l-1.4-1.5c-1.5-1.5-2.2-3.8-1.5-5.8
				c0.8-2.3,2.9-3.7,5.1-3.7h0.1c1.4,0,2.8,0.6,3.8,1.7l1.9,2l-7.6,7.3C92.7,119.5,92.5,119.5,92.4,119.4z M124.3,149.4l4.7-4.5
				c0.2-0.2,0.4-0.1,0.5,0.1l2.2,7c0.1,0.2-0.1,0.4-0.4,0.4l-6.9-2.4C124.2,149.8,124.1,149.5,124.3,149.4z M159.7,129.3v-8.4
				c0-0.7,0.5-1.2,1.2-1.2h7.5c0.5,0,0.8,0.7,0.5,1.1l-8.2,8.9C160.4,130.1,159.7,129.8,159.7,129.3z M173.3,114.3h-16.7
				c-1.3,0-2.3,1-2.3,2.3v19.1c0,0.2-0.1,0.3-0.3,0.3h-22.9c-0.1,0-0.2,0-0.2-0.1l-17.1-17.8l-11.3-11.7c-4.1-4.3-10.9-4.5-15.2-0.4
				c-0.9,0.9-1.7,2-2.3,3.2c-4.1-5.5-10.5-8.8-17.4-8.8H40.4c-0.9,0-1.8,0.1-2.7,0.2V41.8c0-0.6,0.5-1.1,1.1-1.1h75.3
				c0.2,0.8,0.2,0.7,0.4,1.5l-7.4,4.3c-1.1,0.6-1.4,2-0.8,3.1l8.6,14.9c0.6,1.1,2,1.4,3.1,0.8l8-4.6c0.1-0.1,0.2,0,0.3,0
				c1.9,1.4,4,2.6,6.2,3.6c0.1,0,0.2,0.1,0.2,0.3v9.2c0,1.2,1,2.2,2.2,2.2h17.2c1.2,0,2.2-1,2.2-2.2v-9.2c0-0.1,0.1-0.2,0.2-0.3
				c2.2-0.9,4.3-2.1,6.2-3.6c0.1-0.1,0.2-0.1,0.3,0l8,4.6c1.1,0.6,2.4,0.3,3.1-0.8l1.2-2.2L173.3,114.3L173.3,114.3z"/>
			<path class="st0" d="M91.9,58.3c0-0.7-0.6-1.3-1.3-1.3H59.4h-4.1c-0.7,0-1.3,0.6-1.3,1.3v4.1v20.4c0,0.7,0.6,1.3,1.3,1.3H58
				c0.7,0,1.3-0.6,1.3-1.3v-19c0-0.7,0.6-1.3,1.3-1.3h29.9c0.7,0,1.3-0.6,1.3-1.3L91.9,58.3L91.9,58.3z"/>
			<path class="st0" d="M140.8,93.4v8.4c0,0.7-0.5,1.2-1.2,1.2h-19.3c-0.7,0-1.2,0.5-1.2,1.2v3c0,0.7,0.5,1.2,1.2,1.2h20.5h4.2
				c0.7,0,1.2-0.5,1.2-1.2V103v-9.6c0-0.7-0.5-1.2-1.2-1.2h-3C141.3,92.2,140.8,92.7,140.8,93.4z"/>
		</g>
	</g>
</g>
</svg>
